<?xml version="1.0" encoding="utf-8"?>
<!-- Generator: Adobe Illustrator 24.0.2, SVG Export Plug-In . SVG Version: 6.00 Build 0)  -->
<svg version="1.1" id="Layer_1" shaper:fusionaddin="version:1.5.0" xmlns:shaper="http://www.shapertools.com/namespaces/shaper"
	 xmlns="http://www.w3.org/2000/svg" xmlns:xlink="http://www.w3.org/1999/xlink" x="0px" y="0px" viewBox="0 0 722.8 722.8"
	 style="enable-background:new 0 0 722.8 722.8;" xml:space="preserve">
<style type="text/css">
	.st0{fill:none;stroke:#000000;stroke-width:0.25;stroke-miterlimit:10;}
	.st1{fill:none;stroke:#FF00DB;stroke-width:0.5;stroke-miterlimit:113.3858;}
	.st2{fill:none;stroke:#000000;stroke-width:0.5;stroke-miterlimit:113.3858;}
</style>
<path vector-effect="non-scaling-stroke" shaper:cutDepth="0.003175" shaper:pathType="exterior" class="st0" d="M0,361.4
	C0,561,161.8,722.8,361.4,722.8S722.8,561,722.8,361.4S561,0,361.4,0S0,161.8,0,361.4z"/>
<path vector-effect="non-scaling-stroke" shaper:cutDepth="0.003175" shaper:pathType="interior" class="st1" d="M361.4,687.4
	L361.4,687.4l0-127.6l4-4l0,0l-4,4l-4-4l0,0l4,4V687.4z"/>
<path vector-effect="non-scaling-stroke" shaper:cutDepth="0.003175" shaper:pathType="interior" class="st1" d="M687.4,361.4
	L687.4,361.4l-127.6,0l-4-4l0,0l4,4l-4,4l0,0l4-4H687.4z"/>
<path vector-effect="non-scaling-stroke" shaper:cutDepth="0.003175" shaper:pathType="interior" class="st1" d="M361.4,35.4
	L361.4,35.4l0,127.6l-4,4l0,0l4-4l4,4l0,0l-4-4V35.4z"/>
<path vector-effect="non-scaling-stroke" shaper:cutDepth="0.003175" shaper:pathType="interior" class="st1" d="M98,417.4L98,417.4
	l69.3-14.7l4.8,3.1l0,0l-4.8-3.1l3.1-4.8l0,0l-3.1,4.8L98,417.4z"/>
<path vector-effect="non-scaling-stroke" shaper:cutDepth="0.003175" shaper:pathType="interior" class="st1" d="M105.3,444.6
	L105.3,444.6l67.4-21.9l5.1,2.6l0,0l-5.1-2.6l2.6-5.1l0,0l-2.6,5.1L105.3,444.6z"/>
<path vector-effect="non-scaling-stroke" shaper:cutDepth="0.003175" shaper:pathType="interior" class="st1" d="M115.4,470.9
	L115.4,470.9l64.8-28.8l5.3,2l0,0l-5.3-2l2-5.3l0,0l-2,5.3L115.4,470.9z"/>
<path vector-effect="non-scaling-stroke" shaper:cutDepth="0.003175" shaper:pathType="interior" class="st1" d="M143.5,519.7
	L143.5,519.7l57.3-41.6l5.6,0.9l0,0l-5.6-0.9l0.9-5.6l0,0l-0.9,5.6L143.5,519.7z"/>
<path vector-effect="non-scaling-stroke" shaper:cutDepth="0.003175" shaper:pathType="interior" class="st1" d="M161.3,541.6
	L161.3,541.6l52.7-47.4l5.7,0.3l0,0l-5.7-0.3l0.3-5.7l0,0l-0.3,5.7L161.3,541.6z"/>
<path vector-effect="non-scaling-stroke" shaper:cutDepth="0.003175" shaper:pathType="interior" class="st1" d="M181.2,561.5
	L181.2,561.5l47.4-52.6l5.7-0.3l0,0l-5.7,0.3l-0.3-5.7l0,0l0.3,5.7L181.2,561.5z"/>
<path vector-effect="non-scaling-stroke" shaper:cutDepth="0.003175" shaper:pathType="interior" class="st1" d="M203.1,579.3
	L203.1,579.3l41.7-57.3l5.6-0.9l0,0l-5.6,0.9l-0.9-5.6l0,0l0.9,5.6L203.1,579.3z"/>
<path vector-effect="non-scaling-stroke" shaper:cutDepth="0.003175" shaper:pathType="interior" class="st1" d="M251.9,607.4
	L251.9,607.4l28.8-64.7l5.3-2l0,0l-5.3,2l-2-5.3l0,0l2,5.3L251.9,607.4z"/>
<path vector-effect="non-scaling-stroke" shaper:cutDepth="0.003175" shaper:pathType="interior" class="st1" d="M278.2,617.5
	L278.2,617.5l21.9-67.4l5.1-2.6l0,0l-5.1,2.6l-2.6-5.1l0,0l2.6,5.1L278.2,617.5z"/>
<path vector-effect="non-scaling-stroke" shaper:cutDepth="0.003175" shaper:pathType="interior" class="st1" d="M305.4,624.8
	L305.4,624.8l14.8-69.3l4.8-3.1l0,0l-4.8,3.1l-3.1-4.8l0,0l3.1,4.8L305.4,624.8z"/>
<path vector-effect="non-scaling-stroke" shaper:cutDepth="0.003175" shaper:pathType="interior" class="st1" d="M333.3,629.2
	L333.3,629.2l7.4-70.5l4.4-3.6l0,0l-4.4,3.6l-3.6-4.4l0,0l3.6,4.4L333.3,629.2z"/>
<path vector-effect="non-scaling-stroke" shaper:cutDepth="0.003175" shaper:pathType="interior" class="st1" d="M389.6,629.2
	L389.6,629.2l-7.4-70.5l3.6-4.4l0,0l-3.6,4.4l-4.4-3.6l0,0l4.4,3.6L389.6,629.2z"/>
<path vector-effect="non-scaling-stroke" shaper:cutDepth="0.003175" shaper:pathType="interior" class="st1" d="M417.4,624.8
	L417.4,624.8l-14.7-69.3l3.1-4.8l0,0l-3.1,4.8l-4.8-3.1l0,0l4.8,3.1L417.4,624.8z"/>
<path vector-effect="non-scaling-stroke" shaper:cutDepth="0.003175" shaper:pathType="interior" class="st1" d="M444.6,617.5
	L444.6,617.5l-21.9-67.4l2.6-5.1l0,0l-2.6,5.1l-5.1-2.6l0,0l5.1,2.6L444.6,617.5z"/>
<path vector-effect="non-scaling-stroke" shaper:cutDepth="0.003175" shaper:pathType="interior" class="st1" d="M470.9,607.4
	L470.9,607.4l-28.8-64.8l2-5.3l0,0l-2,5.3l-5.3-2l0,0l5.3,2L470.9,607.4z"/>
<path vector-effect="non-scaling-stroke" shaper:cutDepth="0.003175" shaper:pathType="interior" class="st1" d="M519.7,579.3
	L519.7,579.3l-41.6-57.3l0.9-5.6l0,0l-0.9,5.6l-5.6-0.9l0,0l5.6,0.9L519.7,579.3z"/>
<path vector-effect="non-scaling-stroke" shaper:cutDepth="0.003175" shaper:pathType="interior" class="st1" d="M541.6,561.5
	L541.6,561.5l-47.4-52.7l0.3-5.7l0,0l-0.3,5.7l-5.7-0.3l0,0l5.7,0.3L541.6,561.5z"/>
<path vector-effect="non-scaling-stroke" shaper:cutDepth="0.003175" shaper:pathType="interior" class="st1" d="M561.5,541.6
	L561.5,541.6l-52.6-47.4l-0.3-5.7l0,0l0.3,5.7l-5.7,0.3l0,0l5.7-0.3L561.5,541.6z"/>
<path vector-effect="non-scaling-stroke" shaper:cutDepth="0.003175" shaper:pathType="interior" class="st1" d="M579.3,519.7
	L579.3,519.7L522,478l-0.9-5.6l0,0l0.9,5.6l-5.6,0.9l0,0l5.6-0.9L579.3,519.7z"/>
<path vector-effect="non-scaling-stroke" shaper:cutDepth="0.003175" shaper:pathType="interior" class="st1" d="M607.4,471
	L607.4,471l-64.7-28.8l-2-5.3l0,0l2,5.3l-5.3,2l0,0l5.3-2L607.4,471z"/>
<path vector-effect="non-scaling-stroke" shaper:cutDepth="0.003175" shaper:pathType="interior" class="st1" d="M617.5,444.6
	L617.5,444.6l-67.4-21.9l-2.6-5.1l0,0l2.6,5.1l-5.1,2.6l0,0l5.1-2.6L617.5,444.6z"/>
<path vector-effect="non-scaling-stroke" shaper:cutDepth="0.003175" shaper:pathType="interior" class="st1" d="M624.8,417.4
	L624.8,417.4l-69.3-14.8l-3.1-4.8l0,0l3.1,4.8l-4.8,3.1l0,0l4.8-3.1L624.8,417.4z"/>
<path vector-effect="non-scaling-stroke" shaper:cutDepth="0.003175" shaper:pathType="interior" class="st1" d="M629.2,389.6
	L629.2,389.6l-70.5-7.4l-3.6-4.4l0,0l3.6,4.4l-4.4,3.6l0,0l4.4-3.6L629.2,389.6z"/>
<path vector-effect="non-scaling-stroke" shaper:cutDepth="0.003175" shaper:pathType="interior" class="st1" d="M629.2,333.3
	L629.2,333.3l-70.5,7.4l-4.4-3.6l0,0l4.4,3.6l-3.6,4.4l0,0l3.6-4.4L629.2,333.3z"/>
<path vector-effect="non-scaling-stroke" shaper:cutDepth="0.003175" shaper:pathType="interior" class="st1" d="M624.8,305.4
	L624.8,305.4l-69.3,14.7l-4.8-3.1l0,0l4.8,3.1l-3.1,4.8l0,0l3.1-4.8L624.8,305.4z"/>
<path vector-effect="non-scaling-stroke" shaper:cutDepth="0.003175" shaper:pathType="interior" class="st1" d="M617.5,278.2
	L617.5,278.2l-67.4,21.9l-5.1-2.6l0,0l5.1,2.6l-2.6,5.1l0,0l2.6-5.1L617.5,278.2z"/>
<path vector-effect="non-scaling-stroke" shaper:cutDepth="0.003175" shaper:pathType="interior" class="st1" d="M607.4,251.9
	L607.4,251.9l-64.8,28.8l-5.3-2l0,0l5.3,2l-2,5.3l0,0l2-5.3L607.4,251.9z"/>
<path vector-effect="non-scaling-stroke" shaper:cutDepth="0.003175" shaper:pathType="interior" class="st1" d="M579.3,203.1
	L579.3,203.1l-57.3,41.6l-5.6-0.9l0,0l5.6,0.9l-0.9,5.6l0,0l0.9-5.6L579.3,203.1z"/>
<path vector-effect="non-scaling-stroke" shaper:cutDepth="0.003175" shaper:pathType="interior" class="st1" d="M561.5,181.2
	L561.5,181.2l-52.7,47.4l-5.7-0.3l0,0l5.7,0.3l-0.3,5.7l0,0l0.3-5.7L561.5,181.2z"/>
<path vector-effect="non-scaling-stroke" shaper:cutDepth="0.003175" shaper:pathType="interior" class="st1" d="M541.6,161.3
	L541.6,161.3l-47.4,52.6l-5.7,0.3l0,0l5.7-0.3l0.3,5.7l0,0l-0.3-5.7L541.6,161.3z"/>
<path vector-effect="non-scaling-stroke" shaper:cutDepth="0.003175" shaper:pathType="interior" class="st1" d="M519.7,143.6
	L519.7,143.6L478,200.9l-5.6,0.9l0,0l5.6-0.9l0.9,5.6l0,0l-0.9-5.6L519.7,143.6z"/>
<path vector-effect="non-scaling-stroke" shaper:cutDepth="0.003175" shaper:pathType="interior" class="st1" d="M471,115.4
	L471,115.4l-28.8,64.7l-5.3,2l0,0l5.3-2l2,5.3l0,0l-2-5.3L471,115.4z"/>
<path vector-effect="non-scaling-stroke" shaper:cutDepth="0.003175" shaper:pathType="interior" class="st1" d="M444.6,105.3
	L444.6,105.3l-21.9,67.4l-5.1,2.6l0,0l5.1-2.6l2.6,5.1l0,0l-2.6-5.1L444.6,105.3z"/>
<path vector-effect="non-scaling-stroke" shaper:cutDepth="0.003175" shaper:pathType="interior" class="st1" d="M417.4,98L417.4,98
	l-14.8,69.3l-4.8,3.1l0,0l4.8-3.1l3.1,4.8l0,0l-3.1-4.8L417.4,98z"/>
<path vector-effect="non-scaling-stroke" shaper:cutDepth="0.003175" shaper:pathType="interior" class="st1" d="M389.6,93.6
	L389.6,93.6l-7.4,70.5l-4.4,3.6l0,0l4.4-3.6l3.6,4.4l0,0l-3.6-4.4L389.6,93.6z"/>
<path vector-effect="non-scaling-stroke" shaper:cutDepth="0.003175" shaper:pathType="interior" class="st1" d="M333.3,93.6
	L333.3,93.6l7.4,70.5l-3.6,4.4l0,0l3.6-4.4l4.4,3.6l0,0l-4.4-3.6L333.3,93.6z"/>
<path vector-effect="non-scaling-stroke" shaper:cutDepth="0.003175" shaper:pathType="interior" class="st1" d="M305.4,98L305.4,98
	l14.7,69.3l-3.1,4.8l0,0l3.1-4.8l4.8,3.1l0,0l-4.8-3.1L305.4,98z"/>
<path vector-effect="non-scaling-stroke" shaper:cutDepth="0.003175" shaper:pathType="interior" class="st1" d="M278.2,105.3
	L278.2,105.3l21.9,67.4l-2.6,5.1l0,0l2.6-5.1l5.1,2.6l0,0l-5.1-2.6L278.2,105.3z"/>
<path vector-effect="non-scaling-stroke" shaper:cutDepth="0.003175" shaper:pathType="interior" class="st1" d="M251.9,115.4
	L251.9,115.4l28.8,64.8l-2,5.3l0,0l2-5.3l5.3,2l0,0l-5.3-2L251.9,115.4z"/>
<path vector-effect="non-scaling-stroke" shaper:cutDepth="0.003175" shaper:pathType="interior" class="st1" d="M203.1,143.5
	L203.1,143.5l41.6,57.3l-0.9,5.6l0,0l0.9-5.6l5.6,0.9l0,0l-5.6-0.9L203.1,143.5z"/>
<path vector-effect="non-scaling-stroke" shaper:cutDepth="0.003175" shaper:pathType="interior" class="st1" d="M181.2,161.3
	L181.2,161.3l47.4,52.7l-0.3,5.7l0,0l0.3-5.7l5.7,0.3l0,0l-5.7-0.3L181.2,161.3z"/>
<path vector-effect="non-scaling-stroke" shaper:cutDepth="0.003175" shaper:pathType="interior" class="st1" d="M161.3,181.2
	L161.3,181.2l52.6,47.4l0.3,5.7l0,0l-0.3-5.7l5.7-0.3l0,0l-5.7,0.3L161.3,181.2z"/>
<path vector-effect="non-scaling-stroke" shaper:cutDepth="0.003175" shaper:pathType="interior" class="st1" d="M143.6,203.1
	L143.6,203.1l57.3,41.7l0.9,5.6l0,0l-0.9-5.6l5.6-0.9l0,0l-5.6,0.9L143.6,203.1z"/>
<path vector-effect="non-scaling-stroke" shaper:cutDepth="0.003175" shaper:pathType="interior" class="st1" d="M115.4,251.9
	L115.4,251.9l64.7,28.8l2,5.3l0,0l-2-5.3l5.3-2l0,0l-5.3,2L115.4,251.9z"/>
<path vector-effect="non-scaling-stroke" shaper:cutDepth="0.003175" shaper:pathType="interior" class="st1" d="M105.3,278.2
	L105.3,278.2l67.4,21.9l2.6,5.1l0,0l-2.6-5.1l5.1-2.6l0,0l-5.1,2.6L105.3,278.2z"/>
<path vector-effect="non-scaling-stroke" shaper:cutDepth="0.003175" shaper:pathType="interior" class="st1" d="M98,305.4L98,305.4
	l69.3,14.8l3.1,4.8l0,0l-3.1-4.8l4.8-3.1l0,0l-4.8,3.1L98,305.4z"/>
<path vector-effect="non-scaling-stroke" shaper:cutDepth="0.003175" shaper:pathType="interior" class="st1" d="M93.6,333.3
	L93.6,333.3l70.5,7.4l3.6,4.4l0,0l-3.6-4.4l4.4-3.6l0,0l-4.4,3.6L93.6,333.3z"/>
<path vector-effect="non-scaling-stroke" shaper:cutDepth="0.003175" shaper:pathType="interior" class="st1" d="M212.6,619.2
	L212.6,619.2l49.6-85.9l5.5-1.5l0,0l-5.5,1.5l-1.5-5.5l0,0l1.5,5.5L212.6,619.2z"/>
<path vector-effect="non-scaling-stroke" shaper:cutDepth="0.003175" shaper:pathType="interior" class="st1" d="M510.2,619.2
	L510.2,619.2l-49.6-85.9l1.5-5.5l0,0l-1.5,5.5l-5.5-1.5l0,0l5.5,1.5L510.2,619.2z"/>
<path vector-effect="non-scaling-stroke" shaper:cutDepth="0.003175" shaper:pathType="interior" class="st1" d="M619.2,510.2
	L619.2,510.2l-85.9-49.6l-1.5-5.5l0,0l1.5,5.5l-5.5,1.5l0,0l5.5-1.5L619.2,510.2z"/>
<path vector-effect="non-scaling-stroke" shaper:cutDepth="0.003175" shaper:pathType="interior" class="st1" d="M619.2,212.6
	L619.2,212.6l-85.9,49.6l-5.5-1.5l0,0l5.5,1.5l-1.5,5.5l0,0l1.5-5.5L619.2,212.6z"/>
<path vector-effect="non-scaling-stroke" shaper:cutDepth="0.003175" shaper:pathType="interior" class="st1" d="M510.2,103.7
	L510.2,103.7l-49.6,85.9l-5.5,1.5l0,0l5.5-1.5l1.5,5.5l0,0l-1.5-5.5L510.2,103.7z"/>
<path vector-effect="non-scaling-stroke" shaper:cutDepth="0.003175" shaper:pathType="interior" class="st1" d="M212.6,103.6
	L212.6,103.6l49.6,85.9l-1.5,5.5l0,0l1.5-5.5l5.5,1.5l0,0l-5.5-1.5L212.6,103.6z"/>
<path vector-effect="non-scaling-stroke" shaper:cutDepth="0.003175" shaper:pathType="interior" class="st1" d="M103.7,212.6
	L103.7,212.6l85.9,49.6l1.5,5.5l0,0l-1.5-5.5l5.5-1.5l0,0l-5.5,1.5L103.7,212.6z"/>
<path vector-effect="non-scaling-stroke" shaper:cutDepth="0.003175" shaper:pathType="interior" class="st1" d="M93.6,389.6
	L93.6,389.6l70.5-7.4l4.4,3.6l0,0l-4.4-3.6l3.6-4.4l0,0l-3.6,4.4L93.6,389.6z"/>
<path vector-effect="non-scaling-stroke" shaper:cutDepth="0.003175" shaper:pathType="interior" class="st1" d="M103.6,510.2
	L103.6,510.2l85.9-49.6l5.5,1.5l0,0l-5.5-1.5l1.5-5.5l0,0l-1.5,5.5L103.6,510.2z"/>
<path vector-effect="non-scaling-stroke" shaper:cutDepth="0.003175" shaper:pathType="interior" class="st1" d="M35.4,361.4
	L35.4,361.4l127.6,0l4,4l0,0l-4-4l4-4l0,0l-4,4H35.4z"/>
<path vector-effect="non-scaling-stroke" shaper:cutDepth="0.003175" shaper:pathType="interior" class="st2" d="M168.3,361.4
	c0,106.7,86.5,193.1,193.1,193.1s193.1-86.5,193.1-193.1l0,0c0-106.7-86.5-193.1-193.1-193.1S168.3,254.8,168.3,361.4L168.3,361.4z"
	/>
</svg>
